<svg xmlns:inkscape="http://www.inkscape.org/namespaces/inkscape" xmlns:sodipodi="http://sodipodi.sourceforge.net/DTD/sodipodi-0.dtd" xmlns="http://www.w3.org/2000/svg" xmlns:svg="http://www.w3.org/2000/svg" version="1.1" id="svg29" sodipodi:docname="5f794ad8-4925-4646-8dd2-f5c38bf28a06.svg" inkscape:version="1.4.1 (1:1.4.1+202503302257+93de688d07)" viewBox="203.47 170.55 618.02 682.77">
  <defs id="defs29"/>
  <sodipodi:namedview id="namedview29" pagecolor="#ffffff" bordercolor="#000000" borderopacity="0.25" inkscape:showpageshadow="2" inkscape:pageopacity="0.0" inkscape:pagecheckerboard="0" inkscape:deskcolor="#d1d1d1" inkscape:zoom="0.81542969" inkscape:cx="446.39042" inkscape:cy="661.61437" inkscape:window-width="1854" inkscape:window-height="1043" inkscape:window-x="66" inkscape:window-y="0" inkscape:window-maximized="1" inkscape:current-layer="svg29"/>
  
  <path d="M0 0 C0.99580078 0.58749023 1.99160156 1.17498047 3.01757812 1.78027344 C7.50902721 4.43232822 11.99745034 7.08939082 16.47875977 9.75854492 C24.34623039 14.44317355 32.24977347 19.06000165 40.1875 23.625 C51.4950702 30.12800045 62.77023135 36.68454833 74.03222656 43.26611328 C79.01990952 46.18010837 84.01005772 49.08987604 89 52 C94.9777679 55.48622181 100.95505989 58.97324222 106.9296875 62.46484375 C117.20532557 68.46777059 127.49638563 74.44187788 137.8125 80.375 C147.88756713 86.1718926 157.89712756 92.07273293 167.88720703 98.01464844 C175.62177948 102.60827209 183.39038243 107.13841978 191.1875 111.625 C192.78730713 112.54575317 192.78730713 112.54575317 194.41943359 113.48510742 C196.55190793 114.71226156 198.68439482 115.93939387 200.81689453 117.16650391 C209.90373775 122.40060366 218.97226071 127.6645196 228 133 C228.80244141 133.47308594 229.60488281 133.94617188 230.43164062 134.43359375 C247.43503608 144.52159277 260.43919271 155.81807968 266.34375 175.28125 C267.97461823 182.0377041 268.14835942 188.44507046 268.14717102 195.36436462 C268.15084771 196.514553 268.1545244 197.66474138 268.1583125 198.84978396 C268.16740949 202.03392053 268.17204247 205.2180268 268.17470181 208.40217412 C268.17861749 211.84002356 268.18819497 215.27785826 268.19691467 218.71569824 C268.21664438 227.01441382 268.22674125 235.31313055 268.23564246 243.6118637 C268.24003144 247.52547445 268.2453967 251.43908386 268.25063133 255.35269356 C268.26764078 268.37227949 268.28213297 281.39186459 268.28938007 294.41145992 C268.29128979 297.78740884 268.29321015 301.16335775 268.29516602 304.53930664 C268.29564976 305.37832296 268.2961335 306.21733927 268.2966319 307.08178032 C268.30492488 320.66071301 268.33025067 334.2395574 268.36274669 347.81845158 C268.39587914 361.7777589 268.41383445 375.73702145 268.41702431 389.69636828 C268.41918379 397.52663277 268.42784953 405.35676853 268.45348549 413.18699455 C268.47527727 419.85824234 268.48320155 426.5293301 268.47351871 433.20060944 C268.46899814 436.59908062 268.47294518 439.99695667 268.49028015 443.3954258 C268.59941714 466.06950149 266.88668699 485.25713527 250.60009766 502.68554688 C242.3213062 511.00577372 231.86843986 516.64790274 221.66723633 522.265625 C215.3514644 525.75307169 209.17620193 529.45953505 203 533.1875 C191.79357403 539.94424126 180.51180509 546.5610899 169.19873047 553.13720703 C162.16681682 557.23226894 155.15032567 561.35374056 148.13208008 565.47216797 C146.89796018 566.19630775 145.66382929 566.92042879 144.4296875 567.64453125 C143.81608871 568.00456238 143.20248993 568.36459351 142.57029724 568.73553467 C138.28228522 571.25054187 133.98966601 573.7575588 129.6953125 576.26171875 C127.27560586 577.6737339 124.85635449 579.08652559 122.4375 580.5 C121.84021088 580.84902374 121.24292175 581.19804749 120.62753296 581.55764771 C110.97381854 587.20449802 101.40987509 592.98935977 91.86877441 598.82397461 C82.95035537 604.27234968 73.92969983 609.50746034 64.80932617 614.61035156 C57.79776505 618.53409924 50.90002703 622.61283449 44.02929688 626.77636719 C30.45845233 634.95936441 16.74978611 642.91029873 3.0065918 650.79931641 C1.97832275 651.39019043 0.95005371 651.98106445 -0.109375 652.58984375 C-1.10348389 653.16057617 -2.09759277 653.73130859 -3.12182617 654.31933594 C-5.87107379 655.92471558 -8.57764358 657.58724451 -11.28515625 659.26171875 C-24.38065099 667.13761492 -38.93945523 669.2020614 -53.8125 665.625 C-62.87621351 662.71202601 -70.85710592 657.83534487 -79 653 C-80.73146758 651.98255667 -82.46324634 650.96564273 -84.1953125 649.94921875 C-87.88694731 647.77729408 -91.57215219 645.5948782 -95.25390625 643.40625 C-101.00571736 639.9902246 -106.78115502 636.61573989 -112.5625 633.25 C-119.06426253 629.46403579 -125.56303546 625.67321253 -132.05078125 621.86328125 C-132.64955582 621.51168945 -133.24833038 621.16009766 -133.86524963 620.79785156 C-135.08687582 620.08050955 -136.30849955 619.36316333 -137.53012085 618.64581299 C-138.13893097 618.2883197 -138.74774109 617.93082642 -139.375 617.5625 C-139.98485748 617.20436218 -140.59471497 616.84622437 -141.22305298 616.47723389 C-149.87362584 611.39894444 -158.55129267 606.37055086 -167.25 601.375 C-176.77480857 595.90245693 -186.21019861 590.2955698 -195.61523438 584.62011719 C-204.01372047 579.56367111 -212.48706172 574.64690425 -220.98828125 569.765625 C-229.1861173 565.05602193 -237.34941028 560.29065284 -245.5 555.5 C-254.68390681 550.10263847 -263.88927397 544.74595349 -273.125 539.4375 C-282.2623566 534.18040998 -291.36447469 528.8670951 -300.4375 523.5 C-301.53271973 522.85345459 -302.62793945 522.20690918 -303.75634766 521.54077148 C-323.88537953 509.60162925 -340.13821595 498.54955956 -346.86234719 474.97688371 C-348.67356201 467.51088319 -349.43196606 460.58292996 -349.38768005 452.91447449 C-349.39306559 451.77126136 -349.39845113 450.62804823 -349.40399987 449.45019227 C-349.418191 445.65833246 -349.41119748 441.86682611 -349.40405273 438.07495117 C-349.40812126 435.34039924 -349.41662749 432.6058648 -349.42485046 429.87132263 C-349.44197157 423.23755534 -349.44289238 416.60388305 -349.43763756 409.97009941 C-349.43358175 404.57293997 -349.43505609 399.17580841 -349.44038582 393.77865028 C-349.44113424 393.00793007 -349.44188266 392.23720986 -349.44265376 391.44313449 C-349.44418538 389.87696613 -349.44572373 388.31079777 -349.44726873 386.74462942 C-349.46096981 372.08533177 -349.45557316 357.42608761 -349.44408352 342.7667912 C-349.43415576 329.38619719 -349.44708814 316.00574156 -349.47101771 302.62516888 C-349.49546172 288.85207457 -349.50500346 275.07904456 -349.49836498 261.30592901 C-349.49488424 253.58697536 -349.4970286 245.86812802 -349.51461601 238.1491909 C-349.52940462 231.57766876 -349.5298873 225.00632778 -349.5125451 218.43480893 C-349.50408644 215.08883391 -349.5039626 211.7434443 -349.51719666 208.39744568 C-349.59828312 186.19005919 -348.27231545 167.77614752 -332.734375 150.58203125 C-325.10564677 143.37833216 -316.88882423 137.9155084 -307.75 132.8125 C-306.0134082 131.82685687 -304.27682537 130.84119671 -302.54118347 129.85388184 C-300.79690624 128.86214936 -299.05104562 127.87320347 -297.30517578 126.88427734 C-292.5678916 124.18355646 -287.8749703 121.41101959 -283.1875 118.625 C-274.78497544 113.64238543 -266.36646705 108.68769791 -257.9375 103.75 C-257.32723969 103.39246643 -256.71697937 103.03493286 -256.08822632 102.66656494 C-252.97154708 100.84063579 -249.85471432 99.01496894 -246.73779297 97.18945312 C-241.25942013 93.98070463 -235.78247753 90.7695165 -230.30545044 87.55847168 C-227.2870278 85.78887734 -224.26850895 84.01944712 -221.25 82.25 C-220.04166621 81.54166745 -218.83333287 80.83333412 -217.625 80.125 C-210.37499999 75.87499999 -210.37499999 75.87499999 -208.56257629 74.81254578 C-207.35398742 74.10406194 -206.14539978 73.39557602 -204.93681335 72.68708801 C-201.91989977 70.91854021 -198.90296506 69.15002846 -195.88598633 67.3815918 C-190.40168127 64.16685549 -184.91754356 60.95183523 -179.43417358 57.73550415 C-166.66354815 50.24478125 -153.88811923 42.76259601 -141.09643555 35.30786133 C-133.84449517 31.08002164 -126.60088229 26.8381397 -119.36019897 22.59106445 C-113.90748284 19.39287715 -108.45383417 16.19628025 -103 13 C-101.88931152 12.34902344 -100.77862305 11.69804687 -99.63427734 11.02734375 C-93.62881179 7.5094827 -87.61819937 4.00078971 -81.59765625 0.50878906 C-79.92926705 -0.46025654 -78.26245846 -1.43203145 -76.59765625 -2.40722656 C-68.65733818 -7.05513372 -60.88802146 -11.38953216 -52 -14 C-51.38253906 -14.18820313 -50.76507813 -14.37640625 -50.12890625 -14.5703125 C-31.31979565 -18.36664675 -15.55885903 -9.21441506 0 0 Z " fill="#376896" id="path2" transform="translate(553,186)" data-index="1" style="opacity: 1;"/>
  <path d="M0 0 C2.8610233 2.38254336 5.47041458 4.93834747 8.05859375 7.61328125 C11.72837599 6.06588459 14.09198799 3.81033457 16.93359375 1.05078125 C38.42215278 -19.03714502 66.49661647 -27.37015926 95.45117188 -26.51855469 C125.97190422 -24.97537159 154.15425828 -10.41560256 174.60449219 11.95654297 C195.07161964 35.27587254 205.4358445 66.04063706 208.05859375 96.61328125 C205.43522234 94.17499433 203.4828926 91.48136295 201.43359375 88.55078125 C183.61956056 63.92263701 152.50160264 41.85714642 122.125 36.0859375 C105.9042695 33.89124559 88.67568634 33.93253764 75.04296875 44.0078125 C74.388125 44.53761719 73.73328125 45.06742187 73.05859375 45.61328125 C72.13820313 46.33064453 72.13820313 46.33064453 71.19921875 47.0625 C63.74805708 53.60699376 58.65082741 64.30147338 57.85546875 74.12109375 C57.62479301 87.00048902 61.61635296 97.94900715 69.953125 107.8671875 C80.41527307 118.08928629 95.1782226 122.61896898 108.80615234 126.90429688 C133.53313274 134.68742619 154.34707652 146.48438586 167.6484375 169.75390625 C173.1439681 180.89719822 173.84500141 194.42455292 170.43359375 206.30078125 C166.22197822 218.33813222 159.83015116 226.64794863 151.05859375 235.61328125 C150.46175781 236.26039063 149.86492187 236.9075 149.25 237.57421875 C130.13862541 257.87707555 101.79491555 271.09733033 76.05859375 280.61328125 C75.3099707 280.89300781 74.56134766 281.17273438 73.79003906 281.4609375 C64.73729156 284.7997682 55.60289751 287.33523162 46.18359375 289.42578125 C45.25699951 289.63291748 44.33040527 289.84005371 43.37573242 290.0534668 C4.20572091 298.31499353 -35.83163696 290.44614536 -71.94140625 274.61328125 C-72.66199219 274.30310059 -73.38257813 273.99291992 -74.125 273.67333984 C-96.3862281 264.01829803 -117.56205083 250.62739628 -134.94140625 233.61328125 C-136.09189453 232.51693359 -136.09189453 232.51693359 -137.265625 231.3984375 C-146.96467805 221.50178065 -154.2088646 207.433735 -154.25390625 193.42578125 C-154.00178259 177.44744433 -148.34590206 165.48973093 -137.94140625 153.61328125 C-137.420625 153.00871094 -136.89984375 152.40414062 -136.36328125 151.78125 C-122.32010164 136.63873057 -103.85262931 130.61820459 -84.59741211 125.03491211 C-67.88562484 120.07607477 -53.90140008 112.79702102 -44.69140625 97.54296875 C-39.17430112 87.19839663 -38.13063262 75.67485255 -41.50390625 64.42578125 C-46.05895149 52.28434025 -53.80880805 44.40590138 -65.21875 38.69140625 C-82.9203595 31.68187365 -104.81082453 34.47140543 -122.01953125 41.68359375 C-146.92089961 52.69989886 -169.45273566 69.13393805 -184.91015625 91.70703125 C-186.94140625 94.61328125 -186.94140625 94.61328125 -188.94140625 96.61328125 C-189.82788337 64.10912021 -173.82698287 31.40254693 -151.99291992 8.21582031 C-110.07407687 -34.93298739 -45.96064046 -37.17344593 0 0 Z " fill="#F9F9FA" transform="translate(502.94140625,422.38671875)" id="path3" data-index="2" style="opacity: 1;"/>
  <path d="M0 0 C3.49299901 0.00314162 6.98513363 -0.02029351 10.47802734 -0.0456543 C28.40739251 -0.09704012 45.80656297 1.40978558 63.21630859 5.87817383 C64.19704346 6.12865479 65.17777832 6.37913574 66.18823242 6.63720703 C113.07932601 19.18323231 157.21734448 47.50168445 185.52880859 87.31567383 C185.99947754 87.96906738 186.47014648 88.62246094 186.95507812 89.2956543 C202.88323031 111.60764635 215.01217123 136.63268568 221.52880859 163.31567383 C221.69864258 163.99710449 221.86847656 164.67853516 222.04345703 165.38061523 C232.17726601 206.74964555 228.93506417 250.40728071 214.52880859 290.31567383 C214.19880859 290.31567383 213.86880859 290.31567383 213.52880859 290.31567383 C213.51946289 289.23898437 213.51011719 288.16229492 213.50048828 287.05297852 C214.24731056 251.62928762 214.24731056 251.62928762 203.46240234 218.50708008 C202.11756818 215.35037729 202.00305435 212.13452929 201.71630859 208.75317383 C198.1778056 174.55134236 182.47879537 141.30371341 155.98828125 119.01977539 C132.44091148 99.98883292 101.28990508 91.52426038 71.31445312 94.53833008 C50.88996251 97.24318218 30.90590869 105.48414256 15.52880859 119.31567383 C14.59681641 120.14067383 13.66482422 120.96567383 12.70458984 121.81567383 C10.29633475 123.96530181 7.90543213 126.13120283 5.52880859 128.31567383 C2.11671998 126.83684535 -0.12100545 124.89098322 -2.78369141 122.31567383 C-22.44695837 104.4085698 -48.50074525 93.85131378 -75.15869141 94.00317383 C-76.20669922 94.00881348 -77.25470703 94.01445312 -78.33447266 94.02026367 C-93.02313427 94.24808229 -106.01589398 97.52941317 -119.47119141 103.31567383 C-120.64423828 103.8184082 -121.81728516 104.32114258 -123.02587891 104.83911133 C-150.32242618 117.52798251 -172.15564046 141.76858881 -182.60400391 169.89770508 C-188.02987436 185.21146155 -192.86134049 200.94566838 -192.47119141 217.31567383 C-193.13119141 217.31567383 -193.79119141 217.31567383 -194.47119141 217.31567383 C-195.48911919 220.64379232 -196.48186709 223.97895272 -197.47119141 227.31567383 C-197.73416016 228.1690332 -197.99712891 229.02239258 -198.26806641 229.90161133 C-202.49988747 244.28116658 -202.83250638 258.88381056 -203.09619141 273.75317383 C-203.1344896 275.56373703 -203.17354757 277.37428433 -203.21337891 279.18481445 C-203.30804851 283.56163422 -203.39253151 287.93853828 -203.47119141 292.31567383 C-209.21155076 283.7051348 -211.82365715 272.70991747 -214.22119141 262.75317383 C-214.41946533 261.94058105 -214.61773926 261.12798828 -214.82202148 260.29077148 C-217.9460103 246.72900045 -218.7982554 233.45698489 -218.73193359 219.60083008 C-218.72123253 216.95085633 -218.73188403 214.30156443 -218.74462891 211.65161133 C-218.75703994 197.31253602 -217.5670565 183.31732601 -214.65869141 169.25317383 C-214.48692383 168.4172168 -214.31515625 167.58125977 -214.13818359 166.7199707 C-207.27460024 134.47709075 -192.05600194 104.20349807 -170.47119141 79.31567383 C-169.78798828 78.52161133 -169.10478516 77.72754883 -168.40087891 76.90942383 C-166.13471568 74.33385824 -163.81851694 71.81757056 -161.47119141 69.31567383 C-160.98054199 68.79102539 -160.48989258 68.26637695 -159.984375 67.72583008 C-140.56900734 47.13971635 -116.2708902 30.63373905 -90.40869141 19.25317383 C-89.22766846 18.73295654 -88.04664551 18.21273926 -86.82983398 17.67675781 C-70.21130887 10.47806938 -53.22699097 5.80421483 -35.47119141 2.31567383 C-34.59946289 2.12658447 -33.72773438 1.93749512 -32.82958984 1.74267578 C-21.98914365 -0.30794789 -10.99218672 -0.02061894 0 0 Z " fill="#6F99BE" transform="translate(507.47119140625,302.684326171875)" id="path4" data-index="3" style="opacity: 1;"/>
  <path d="M0 0 C0.76256607 -0.00807175 1.52513214 -0.01614349 2.31080627 -0.02445984 C3.927152 -0.03827353 5.54352655 -0.0490078 7.15991211 -0.05688477 C8.78988377 -0.06832825 10.41982025 -0.08865702 12.04956055 -0.1184082 C24.65752467 -0.34820411 37.48556402 0.00608375 47.6015625 8.625 C52.00690251 13.0952836 53.43803314 16.72521983 53.75390625 23.05078125 C53.38545353 32.00529896 49.94365934 37.89693511 43.56640625 44.05078125 C38.52839929 48.2877975 33.38095284 51.04940742 27.19140625 53.23828125 C26.49917969 53.48320313 25.80695312 53.728125 25.09375 53.98046875 C11.64166091 57.76467878 -2.40530674 55.6842938 -14.55859375 49.36328125 C-23.48519887 44.21573118 -28.18774616 38.47997643 -32.80859375 29.23828125 C-33.40907309 23.30239531 -33.5918689 17.84227607 -30.125 12.79296875 C-22.28884007 3.53839412 -11.85659539 0.12063408 0 0 Z " fill="#366896" transform="translate(501.80859375,535.76171875)" id="path5" data-index="4"/>
  <path d="M0 0 C2.72534884 1.1408437 3.65058224 1.96406102 5.625 4.0625 C22.36692704 21.59312596 47.59620986 31.72198301 71.59375 32.328125 C83.98009781 32.47417717 95.67096952 32.33033319 107.6875 29.125 C108.70070313 28.85816406 109.71390625 28.59132813 110.7578125 28.31640625 C127.07581436 23.42100569 142.3784668 14.66606181 153.51953125 1.71484375 C155.6875 0.125 155.6875 0.125 158.83203125 0.30859375 C163.13598085 1.53913474 163.13598085 1.53913474 164.6875 4.125 C165.61158277 10.9896149 163.02024167 15.0070357 159.09765625 20.25 C143.27232558 39.52143862 115.74827232 50.09852274 91.5625 52.75 C60.10385707 55.18693713 30.04473675 47.79283178 5.6875 27.125 C0.24068645 22.32622601 -5.34002859 17.35248851 -7.3125 10.125 C-7.3125 6.16456439 -7.18545116 4.12265847 -4.5625 1.125 C-2.3125 0.125 -2.3125 0.125 0 0 Z " fill="#356696" transform="translate(433.3125,581.875)" id="path6" data-index="5"/>
  <path d="M0 0 C4.20130944 3.20027542 7.75172132 6.72949001 9 12 C9.125 14.8125 9.125 14.8125 9 17 C4.34086923 16.63022772 0.37498591 16.25148217 -3.9375 14.4375 C-14.68483182 10.65428862 -26.9937617 12.1162998 -37.203125 16.61328125 C-39.19769074 17.602207 -41.17816083 18.61977691 -43.1484375 19.65625 C-46.34253771 21.16141503 -48.51229071 21.24912209 -52 21 C-52.875 19 -52.875 19 -53 16 C-47.49208645 5.76200802 -37.87826878 -0.14884864 -27.078125 -3.6171875 C-17.83261273 -5.32030818 -8.27587354 -4.57985235 0 0 Z " fill="#173D64" transform="translate(434,498)" id="path7" data-index="6"/>
  <path d="M0 0 C5.71243499 3.50021834 10.95553311 7.91106622 14 14 C14.039992 15.99960012 14.04346799 18.00047242 14 20 C9.13991864 19.66092456 5.21471315 18.38194737 0.6875 16.5625 C-4.85434853 14.36607435 -10.08348971 12.74333066 -16 12 C-16.66644531 11.90460938 -17.33289063 11.80921875 -18.01953125 11.7109375 C-24.33513015 11.25206033 -30.11821982 13.31537525 -36.06079102 15.22094727 C-39.57888249 16.34428736 -42.26837892 17 -46 17 C-46.49311862 13.05505105 -46.76584674 10.3963939 -44.828125 6.86328125 C-34.14485669 -6.49080413 -14.5229759 -7.77759371 0 0 Z " fill="#173D64" transform="translate(628,499)" id="path8" data-index="7"/>
  <path d="M0 0 C0 3.69349436 -0.88153908 5.00493457 -3 8 C-5.6875 10.3125 -5.6875 10.3125 -8 12 C-6.49087042 7.01987239 -3.44338151 3.75740058 0 0 Z " fill="#7CA6C8" transform="translate(333,387)" id="path22" data-index="8"/>
</svg>